<?xml version="1.0" encoding="UTF-8"?>
<svg width="260px" height="144px" viewBox="0 0 260 144" version="1.1" xmlns="http://www.w3.org/2000/svg" xmlns:xlink="http://www.w3.org/1999/xlink">
    <!-- Generator: Sketch 62 (91390) - https://sketch.com -->
    <title>Page 1</title>
    <desc>Created with Sketch.</desc>
    <g id="Page-1" stroke="none" stroke-width="1" fill="none" fill-rule="evenodd">
        <g id="React-Library" transform="translate(-120.000000, -72.000000)">
            <text id="React-Library-Exampl" font-family="Helvetica-Bold, Helvetica" font-size="24" font-weight="bold" line-spacing="28" letter-spacing="0.133333335" fill="#666666">
                <tspan x="120" y="193">React Library Example</tspan>
            </text>
            <text id="(with-Typescript)" font-family="Helvetica-LightOblique, Helvetica" font-size="8" font-style="italic" font-weight="300" letter-spacing="0.0444444451" fill="#666666">
                <tspan x="227" y="214">(with Typescript)</tspan>
            </text>
            <path d="" id="Path" stroke="#979797"></path>
            <g id="Link" transform="translate(211.000000, 96.097509)" stroke="#71A066" stroke-width="17">
                <path d="M10,31.5 C10,43.9264069 20.0735931,54 32.5,54 L109.5,54 C121.926407,54 132,43.9264069 132,31.5 C132,19.0735931 121.926407,9 109.5,9 L32.5,9 C20.0735931,9 10,19.0735931 10,31.5 Z" id="Path-2"></path>
            </g>
            <g id="Link" opacity="0.763090588" transform="translate(146.000000, 72.000000)" stroke="#71A066" stroke-width="17">
                <path d="M10,31.5 C10,43.9264069 20.0735931,54 32.5,54 L109.5,54 C121.926407,54 132,43.9264069 132,31.5 C132,19.0735931 121.926407,9 109.5,9 L32.5,9 C20.0735931,9 10,19.0735931 10,31.5 Z" id="Path-2"></path>
            </g>
        </g>
    </g>
</svg>